HIERARCHY
ROOT hip
{
  OFFSET 0 90.174 2.4664
  CHANNELS 6 Xposition Yposition Zposition Zrotation Xrotation Yrotation
  JOINT abdomen
  {
    OFFSET 0 -1.186 -1.5018
    CHANNELS 6 Xposition Yposition Zposition Zrotation Xrotation Yrotation
    JOINT abdomen2
    {
      OFFSET 0 9.964 0.2134
      CHANNELS 6 Xposition Yposition Zposition Zrotation Xrotation Yrotation
      JOINT chest
      {
        OFFSET 0 13.134 -3.2573
        CHANNELS 6 Xposition Yposition Zposition Zrotation Xrotation Yrotation
        JOINT neck
        {
          OFFSET 0 20.686 -1.6905
          CHANNELS 6 Xposition Yposition Zposition Zrotation Xrotation Yrotation
          JOINT head
          {
            OFFSET 0 7.238 -0.1237
            CHANNELS 6 Xposition Yposition Zposition Zrotation Xrotation Yrotation
            End Site
            {
              OFFSET 0 0 0
            }
          }
        }
        JOINT lCollar
        {
          OFFSET 1.7069 20.075 5.0056
          CHANNELS 6 Xposition Yposition Zposition Zrotation Xrotation Yrotation
          JOINT lShldr
          {
            OFFSET 13.6458 -0.047 -4.849
            CHANNELS 6 Xposition Yposition Zposition Zrotation Xrotation Yrotation
            JOINT lForeArm
            {
              OFFSET 28.3255 -0.9759 2.2888
              CHANNELS 6 Xposition Yposition Zposition Zrotation Xrotation Yrotation
              JOINT lHand
              {
                OFFSET 22.1583 -0.53 10.8316
                CHANNELS 6 Xposition Yposition Zposition Zrotation Xrotation Yrotation
                JOINT lThumb1
                {
                  OFFSET 0.786 0.112 2.5817
                  CHANNELS 6 Xposition Yposition Zposition Zrotation Xrotation Yrotation
                  JOINT lThumb2
                  {
                    OFFSET 0.3601 -0.878 4.2331
                    CHANNELS 6 Xposition Yposition Zposition Zrotation Xrotation Yrotation
                    JOINT lThumb2_End
                    {
                      OFFSET 1.8127 -1.216 2.2227
                      CHANNELS 6 Xposition Yposition Zposition Zrotation Xrotation Yrotation
                      End Site
                      {
                        OFFSET 0.0181 -0.0122 0.0222
                      }
                    }
                  }
                }
                JOINT lCarpal1
                {
                  OFFSET 0.9571 1.114 1.7695
                  CHANNELS 6 Xposition Yposition Zposition Zrotation Xrotation Yrotation
                  JOINT lIndex1
                  {
                    OFFSET 4.1246 0.487 4.1451
                    CHANNELS 6 Xposition Yposition Zposition Zrotation Xrotation Yrotation
                    JOINT lIndex2
                    {
                      OFFSET 3.4052 -1.454 2.7682
                      CHANNELS 6 Xposition Yposition Zposition Zrotation Xrotation Yrotation
                      JOINT lIndex2_End
                      {
                        OFFSET 1.4531 -1.795 1.2713
                        CHANNELS 6 Xposition Yposition Zposition Zrotation Xrotation Yrotation
                        End Site
                        {
                          OFFSET 0.0145 -0.0179 0.0127
                        }
                      }
                    }
                  }
                  JOINT lMid1
                  {
                    OFFSET 5.6954 0.21 2.1184
                    CHANNELS 6 Xposition Yposition Zposition Zrotation Xrotation Yrotation
                    JOINT lMid2
                    {
                      OFFSET 3.9766 -1.54 2.3863
                      CHANNELS 6 Xposition Yposition Zposition Zrotation Xrotation Yrotation
                      JOINT lMid2_End
                      {
                        OFFSET 1.4042 -1.926 1.125
                        CHANNELS 6 Xposition Yposition Zposition Zrotation Xrotation Yrotation
                        End Site
                        {
                          OFFSET 0.014 -0.0193 0.0113
                        }
                      }
                    }
                  }
                }
                JOINT lCarpal2
                {
                  OFFSET 2.0956 0.66 -0.3894
                  CHANNELS 6 Xposition Yposition Zposition Zrotation Xrotation Yrotation
                  JOINT lRing1
                  {
                    OFFSET 5.0395 -0.09 2.4971
                    CHANNELS 6 Xposition Yposition Zposition Zrotation Xrotation Yrotation
                    JOINT lRing2
                    {
                      OFFSET 3.7921 -1.552 1.4806
                      CHANNELS 6 Xposition Yposition Zposition Zrotation Xrotation Yrotation
                      JOINT lRing2_End
                      {
                        OFFSET 1.4655 -1.808 0.9609
                        CHANNELS 6 Xposition Yposition Zposition Zrotation Xrotation Yrotation
                        End Site
                        {
                          OFFSET 0.0147 -0.0181 0.0096
                        }
                      }
                    }
                  }
                  JOINT lPinky1
                  {
                    OFFSET 4.9141 -1.269 0.3591
                    CHANNELS 6 Xposition Yposition Zposition Zrotation Xrotation Yrotation
                    JOINT lPinky2
                    {
                      OFFSET 3.1477 -1.685 0.8462
                      CHANNELS 6 Xposition Yposition Zposition Zrotation Xrotation Yrotation
                      JOINT lPinky2_End
                      {
                        OFFSET 0.8055 -1.585 0.7955
                        CHANNELS 6 Xposition Yposition Zposition Zrotation Xrotation Yrotation
                        End Site
                        {
                          OFFSET 0.0081 -0.0158 0.008
                        }
                      }
                    }
                  }
                }
              }
            }
          }
        }
        JOINT rCollar
        {
          OFFSET -1.7069 20.075 5.0056
          CHANNELS 6 Xposition Yposition Zposition Zrotation Xrotation Yrotation
          JOINT rShldr
          {
            OFFSET -13.6458 -0.047 -4.849
            CHANNELS 6 Xposition Yposition Zposition Zrotation Xrotation Yrotation
            JOINT rForeArm
            {
              OFFSET -28.3255 -0.9759 2.2888
              CHANNELS 6 Xposition Yposition Zposition Zrotation Xrotation Yrotation
              JOINT rHand
              {
                OFFSET -22.1583 -0.53 10.8316
                CHANNELS 6 Xposition Yposition Zposition Zrotation Xrotation Yrotation
                JOINT rThumb1
                {
                  OFFSET -0.786 0.112 2.5817
                  CHANNELS 6 Xposition Yposition Zposition Zrotation Xrotation Yrotation
                  JOINT rThumb2
                  {
                    OFFSET -0.3601 -0.878 4.2331
                    CHANNELS 6 Xposition Yposition Zposition Zrotation Xrotation Yrotation
                    JOINT rThumb2_End
                    {
                      OFFSET -1.8127 -1.216 2.2227
                      CHANNELS 6 Xposition Yposition Zposition Zrotation Xrotation Yrotation
                      End Site
                      {
                        OFFSET -0.0181 -0.0122 0.0222
                      }
                    }
                  }
                }
                JOINT rCarpal1
                {
                  OFFSET -0.9571 1.114 1.7695
                  CHANNELS 6 Xposition Yposition Zposition Zrotation Xrotation Yrotation
                  JOINT rIndex1
                  {
                    OFFSET -4.1246 0.487 4.1451
                    CHANNELS 6 Xposition Yposition Zposition Zrotation Xrotation Yrotation
                    JOINT rIndex2
                    {
                      OFFSET -3.4052 -1.454 2.7682
                      CHANNELS 6 Xposition Yposition Zposition Zrotation Xrotation Yrotation
                      JOINT rIndex2_End
                      {
                        OFFSET -1.4531 -1.795 1.2713
                        CHANNELS 6 Xposition Yposition Zposition Zrotation Xrotation Yrotation
                        End Site
                        {
                          OFFSET -0.0145 -0.018 0.0127
                        }
                      }
                    }
                  }
                  JOINT rMid1
                  {
                    OFFSET -5.6954 0.21 2.1184
                    CHANNELS 6 Xposition Yposition Zposition Zrotation Xrotation Yrotation
                    JOINT rMid2
                    {
                      OFFSET -3.9766 -1.54 2.3863
                      CHANNELS 6 Xposition Yposition Zposition Zrotation Xrotation Yrotation
                      JOINT rMid2_End
                      {
                        OFFSET -1.4042 -1.926 1.125
                        CHANNELS 6 Xposition Yposition Zposition Zrotation Xrotation Yrotation
                        End Site
                        {
                          OFFSET -0.014 -0.0193 0.0113
                        }
                      }
                    }
                  }
                }
                JOINT rCarpal2
                {
                  OFFSET -2.0956 0.66 -0.3894
                  CHANNELS 6 Xposition Yposition Zposition Zrotation Xrotation Yrotation
                  JOINT rRing1
                  {
                    OFFSET -5.0395 -0.09 2.4971
                    CHANNELS 6 Xposition Yposition Zposition Zrotation Xrotation Yrotation
                    JOINT rRing2
                    {
                      OFFSET -3.7921 -1.552 1.4806
                      CHANNELS 6 Xposition Yposition Zposition Zrotation Xrotation Yrotation
                      JOINT rRing2_End
                      {
                        OFFSET -1.4655 -1.808 0.9609
                        CHANNELS 6 Xposition Yposition Zposition Zrotation Xrotation Yrotation
                        End Site
                        {
                          OFFSET -0.0147 -0.0181 0.0096
                        }
                      }
                    }
                  }
                  JOINT rPinky1
                  {
                    OFFSET -4.9141 -1.269 0.3592
                    CHANNELS 6 Xposition Yposition Zposition Zrotation Xrotation Yrotation
                    JOINT rPinky2
                    {
                      OFFSET -3.1477 -1.685 0.8462
                      CHANNELS 6 Xposition Yposition Zposition Zrotation Xrotation Yrotation
                      JOINT rPinky2_End
                      {
                        OFFSET -0.8055 -1.585 0.7955
                        CHANNELS 6 Xposition Yposition Zposition Zrotation Xrotation Yrotation
                        End Site
                        {
                          OFFSET -0.0081 -0.0158 0.008
                        }
                      }
                    }
                  }
                }
              }
            }
          }
        }
      }
    }
  }
  JOINT lThigh
  {
    OFFSET 8.367 -8.2066 0.5982
    CHANNELS 6 Xposition Yposition Zposition Zrotation Xrotation Yrotation
    JOINT lShin
    {
      OFFSET 2.1923 -43.463 -0.4932
      CHANNELS 6 Xposition Yposition Zposition Zrotation Xrotation Yrotation
      JOINT lFoot
      {
        OFFSET 0.7333 -45.8593 -2.6451
        CHANNELS 6 Xposition Yposition Zposition Zrotation Xrotation Yrotation
        End Site
        {
          OFFSET 2.6618 -4.2699 12.3931
        }
      }
    }
  }
  JOINT rThigh
  {
    OFFSET -8.367 -8.2066 0.5982
    CHANNELS 6 Xposition Yposition Zposition Zrotation Xrotation Yrotation
    JOINT rShin
    {
      OFFSET -2.1923 -43.463 -0.4931
      CHANNELS 6 Xposition Yposition Zposition Zrotation Xrotation Yrotation
      JOINT rFoot
      {
        OFFSET -0.7333 -45.8593 -2.6451
        CHANNELS 6 Xposition Yposition Zposition Zrotation Xrotation Yrotation
        End Site
        {
          OFFSET -2.6618 -4.2699 12.3931
        }
      }
    }
  }
}
MOTION
Frames:	4
Frame Time:	0.0333333
0 90.174 2.4664 0 0 -0 0 -1.186 -1.5018 0 0 -0 0 9.964 0.2134 0 0 -0 0 13.134 -3.2573 0 0 -0 0 20.686 -1.6905 0 0 -0 0 7.238 -0.1237 0 0 -0 1.7069 20.075 5.0056 0 0 -0 13.6458 -0.047 -4.849 1.66051 0.0835086 5.75766 28.3255 -0.9759 2.2888 -0.0175111 0.895433 15.7816 22.1583 -0.53 10.8316 7.95139e-016 -1.98785e-016 -0 0.786 0.112 2.5817 5.46658e-016 -3.97569e-016 -0 0.3601 -0.878 4.2331 5.96354e-016 0 -0 1.8127 -1.216 2.2227 3.97569e-016 1.98785e-016 9.54166e-015 0.9571 1.114 1.7695 1.49089e-016 -3.97569e-016 -0 4.1246 0.487 4.1451 6.4605e-016 0 3.18055e-015 3.4052 -1.454 2.7682 5.96354e-016 0 3.18055e-015 1.4531 -1.795 1.2713 8.94531e-016 -1.98785e-016 6.36111e-015 5.6954 0.21 2.1184 6.4605e-016 0 3.18055e-015 3.9766 -1.54 2.3863 5.96354e-016 0 3.18055e-015 1.4042 -1.926 1.125 8.94531e-016 -1.98785e-016 6.36111e-015 2.0956 0.66 -0.3894 1.49089e-016 -3.97569e-016 -0 5.0395 -0.09 2.4971 6.4605e-016 0 3.18055e-015 3.7921 -1.552 1.4806 5.96354e-016 0 3.18055e-015 1.4655 -1.808 0.9609 8.94531e-016 -1.98785e-016 6.36111e-015 4.9141 -1.269 0.3591 6.4605e-016 0 3.18055e-015 3.1477 -1.685 0.8462 5.96354e-016 0 3.18055e-015 0.8055 -1.585 0.7955 8.94531e-016 -1.98785e-016 6.36111e-015 -1.7069 20.075 5.0056 0 0 -0 -13.6458 -0.047 -4.849 -1.4496 0.0636048 -5.0245 -28.3255 -0.9759 2.2888 -1.74811 1.20616 -16.8394 -22.1583 -0.53 10.8316 -1.19271e-015 1.98785e-016 -3.18055e-015 -0.786 0.112 2.5817 -3.97569e-016 1.98785e-016 -3.18055e-015 -0.3601 -0.878 4.2331 -2.98177e-016 1.98785e-016 -3.18055e-015 -1.8127 -1.216 2.2227 -2.98177e-016 3.97569e-016 -0 -0.9571 1.114 1.7695 4.96962e-016 0 -6.36111e-015 -4.1246 0.487 4.1451 -9.93923e-017 3.97569e-016 -0 -3.4052 -1.454 2.7682 -8.94531e-016 5.96354e-016 -0 -1.4531 -1.795 1.2713 -3.97569e-016 3.97569e-016 -0 -5.6954 0.21 2.1184 -9.93923e-017 3.97569e-016 -0 -3.9766 -1.54 2.3863 -8.94531e-016 5.96354e-016 -0 -1.4042 -1.926 1.125 -3.97569e-016 3.97569e-016 -0 -2.0956 0.66 -0.3894 4.96962e-016 0 -6.36111e-015 -5.0395 -0.09 2.4971 -9.93923e-017 3.97569e-016 -0 -3.7921 -1.552 1.4806 -8.94531e-016 5.96354e-016 -0 -1.4655 -1.808 0.9609 -3.97569e-016 3.97569e-016 -0 -4.9141 -1.269 0.3592 -9.93923e-017 3.97569e-016 -0 -3.1477 -1.685 0.8462 -8.94531e-016 5.96354e-016 -0 -0.8055 -1.585 0.7955 -3.97569e-016 3.97569e-016 -0 8.367 -8.2066 0.5982 -4.66115 -1.03232 0.120763 2.1923 -43.463 -0.4932 0.00990601 1.55097 0.177175 0.7333 -45.8593 -2.6451 4.65196 -0.54114 -0.255042 -8.367 -8.2066 0.5982 4.66115 -1.03222 -0.120763 -2.1923 -43.463 -0.4931 -0.00990459 1.5509 -0.177176 -0.7333 -45.8593 -2.6451 -4.65196 -0.541171 0.255041 
-45.7384 30.8488 9.23324 64.8724 -11.4385 71.9871 0 -1.186 -1.5018 -0.439428 7.46763 -0.0782563 3.55271e-015 9.964 0.2134 -0.879857 14.9357 -0.0994621 0 13.134 -3.2573 -0.87985 14.9357 -0.099443 7.10543e-015 20.686 -1.6905 -3.75107e-005 11.8988 3.18386e-005 0 7.238 -0.1237 -1.55192e-006 8.22117 -1.31193e-005 1.7069 20.075 5.0056 5.87417 7.57806 -31.1455 13.6458 -0.047 -4.849 -27.0748 -0.95373 37.5158 28.3255 -0.9759 2.2888 5.06907 -53.9454 -53.7179 22.1583 -0.53 10.8316 -0.955718 -2.2653 12.5655 0.786 0.112 2.5817 -1.59028e-015 -6.36111e-015 3.18055e-015 0.3601 -0.878 4.2331 -6.36111e-015 -1.11319e-014 6.36111e-015 1.8127 -1.216 2.2227 -3.18055e-015 -1.11319e-014 6.36111e-015 0.9571 1.114 1.7695 2.64834e-031 4.77083e-015 -3.18055e-015 4.1246 0.487 4.1451 -0 0 2.54444e-014 3.4052 -1.454 2.7682 -4.77083e-015 -9.54166e-015 -0 1.4531 -1.795 1.2713 -3.18055e-015 -1.27222e-014 1.59028e-014 5.6954 0.21 2.1184 -0 0 2.54444e-014 3.9766 -1.54 2.3863 -4.77083e-015 -9.54166e-015 -0 1.4042 -1.926 1.125 -3.18055e-015 -1.27222e-014 1.59028e-014 2.0956 0.66 -0.3894 2.64834e-031 4.77083e-015 -3.18055e-015 5.0395 -0.09 2.4971 -0 0 2.54444e-014 3.7921 -1.552 1.4806 -4.77083e-015 -9.54166e-015 -0 1.4655 -1.808 0.9609 -3.18055e-015 -1.27222e-014 1.59028e-014 4.9141 -1.269 0.3591 -0 0 2.54444e-014 3.1477 -1.685 0.8462 -4.77083e-015 -9.54166e-015 -0 0.8055 -1.585 0.7955 -3.18055e-015 -1.27222e-014 1.59028e-014 -1.7069 20.075 5.0056 5.15815 14.9941 20.6207 -13.6458 -0.047 -4.849 33.3895 -6.98525 -37.9353 -28.3255 -0.9759 2.2888 -2.32156 -10.8801 42.254 -22.1583 -0.53 10.8316 8.33425 -1.07185 6.06408 -0.786 0.112 2.5817 -8.90283e-007 -7.21252e-007 5.69714e-007 -0.3601 -0.878 4.2331 2.23027e-006 5.30324e-006 9.21882e-006 -1.8127 -1.216 2.2227 -5.93522e-007 -4.80835e-007 3.79809e-007 -0.9571 1.114 1.7695 2.09661e-031 -3.77691e-015 3.18055e-015 -4.1246 0.487 4.1451 -8.90283e-007 -7.21252e-007 5.69714e-007 -3.4052 -1.454 2.7682 2.23027e-006 5.30324e-006 9.21882e-006 -1.4531 -1.795 1.2713 -5.93522e-007 -4.80835e-007 3.79809e-007 -5.6954 0.21 2.1184 -8.90283e-007 -7.21252e-007 5.69714e-007 -3.9766 -1.54 2.3863 2.23027e-006 5.30324e-006 9.21882e-006 -1.4042 -1.926 1.125 -5.93522e-007 -4.80835e-007 3.79809e-007 -2.0956 0.66 -0.3894 2.09661e-031 -3.77691e-015 3.18055e-015 -5.0395 -0.09 2.4971 -8.90283e-007 -7.21252e-007 5.69714e-007 -3.7921 -1.552 1.4806 2.23027e-006 5.30324e-006 9.21882e-006 -1.4655 -1.808 0.9609 -5.93522e-007 -4.80835e-007 3.79809e-007 -4.9141 -1.269 0.3592 -8.90283e-007 -7.21252e-007 5.69714e-007 -3.1477 -1.685 0.8462 2.23027e-006 5.30324e-006 9.21882e-006 -0.8055 -1.585 0.7955 -5.93522e-007 -4.80835e-007 3.79809e-007 8.367 -8.2066 0.5982 -0.987688 -0.731892 -0.891719 2.1923 -43.463 -0.4932 -1.04573 -1.08911 1.61675 0.7333 -45.8593 -2.6451 -9.36623 8.36739 22.5485 -8.367 -8.2066 0.5982 -19.3417 -31.6443 -43.0221 -2.1923 -43.463 -0.4931 -35.3337 53.358 58.6735 -0.7333 -45.8593 -2.6451 12.0879 13.2705 -24.397 
-65.0035 0.749749 15.7808 96.2913 7.21454 96.5134 0 -1.186 -1.5018 -0.608003 10.7659 -0.188493 0 9.964 0.2134 -1.21225 21.5331 -0.265501 0 13.134 -3.2573 -1.21226 21.5332 -0.265461 1.77636e-015 20.686 -1.6905 -0.000287315 17.0095 6.32559e-005 0 7.238 -0.1237 3.07043e-006 11.5578 7.96433e-006 1.7069 20.075 5.0056 10.8384 9.17917 -45.4003 13.6458 -0.047 -4.849 -39.4427 -0.938102 51.7228 28.3255 -0.9759 2.2888 -8.55641 -38.5601 -87.9745 22.1583 -0.53 10.8316 -1.09266 -3.15268 18.2819 0.786 0.112 2.5817 -6.36111e-015 -1.59028e-015 -0 0.3601 -0.878 4.2331 4.1377e-006 -1.77007e-006 5.58052e-006 1.8127 -1.216 2.2227 -3.18055e-015 3.18055e-015 3.18055e-015 0.9571 1.114 1.7695 -6.36111e-015 0 -0 4.1246 0.487 4.1451 9.54166e-015 1.59028e-015 -3.18055e-015 3.4052 -1.454 2.7682 4.1377e-006 -1.77007e-006 5.58052e-006 1.4531 -1.795 1.2713 9.54166e-015 1.59028e-015 6.36111e-015 5.6954 0.21 2.1184 9.54166e-015 1.59028e-015 -3.18055e-015 3.9766 -1.54 2.3863 4.1377e-006 -1.77007e-006 5.58052e-006 1.4042 -1.926 1.125 9.54166e-015 1.59028e-015 6.36111e-015 2.0956 0.66 -0.3894 -6.36111e-015 0 -0 5.0395 -0.09 2.4971 9.54166e-015 1.59028e-015 -3.18055e-015 3.7921 -1.552 1.4806 4.1377e-006 -1.77007e-006 5.58052e-006 1.4655 -1.808 0.9609 9.54166e-015 1.59028e-015 6.36111e-015 4.9141 -1.269 0.3591 9.54166e-015 1.59028e-015 -3.18055e-015 3.1477 -1.685 0.8462 4.1377e-006 -1.77007e-006 5.58052e-006 0.8055 -1.585 0.7955 9.54166e-015 1.59028e-015 6.36111e-015 -1.7069 20.075 5.0056 3.93445 20.2079 30.7748 -13.6458 -0.047 -4.849 46.5419 -8.01433 -52.9592 -28.3255 -0.9759 2.2888 0.814008 -5.12307 68.2288 -22.1583 -0.53 10.8316 12.4245 -1.25012 8.55077 -0.786 0.112 2.5817 1.43125e-014 -9.54166e-015 -1.59028e-014 -0.3601 -0.878 4.2331 1.11319e-014 3.18055e-015 -9.54166e-015 -1.8127 -1.216 2.2227 1.59028e-014 0 -7.95139e-015 -0.9571 1.114 1.7695 -1.76556e-031 -6.36111e-015 -1.59028e-015 -4.1246 0.487 4.1451 9.54166e-015 -3.18055e-015 -1.90833e-014 -3.4052 -1.454 2.7682 1.27222e-014 -6.36111e-015 -1.11319e-014 -1.4531 -1.795 1.2713 1.11319e-014 3.18055e-015 -1.59028e-014 -5.6954 0.21 2.1184 9.54166e-015 -3.18055e-015 -1.90833e-014 -3.9766 -1.54 2.3863 1.27222e-014 -6.36111e-015 -1.11319e-014 -1.4042 -1.926 1.125 1.11319e-014 3.18055e-015 -1.59028e-014 -2.0956 0.66 -0.3894 -1.76556e-031 -6.36111e-015 -1.59028e-015 -5.0395 -0.09 2.4971 9.54166e-015 -3.18055e-015 -1.90833e-014 -3.7921 -1.552 1.4806 1.27222e-014 -6.36111e-015 -1.11319e-014 -1.4655 -1.808 0.9609 1.11319e-014 3.18055e-015 -1.59028e-014 -4.9141 -1.269 0.3592 9.54166e-015 -3.18055e-015 -1.90833e-014 -3.1477 -1.685 0.8462 1.27222e-014 -6.36111e-015 -1.11319e-014 -0.8055 -1.585 0.7955 1.11319e-014 3.18055e-015 -1.59028e-014 8.367 -8.2066 0.5982 0.678375 -3.36534 -1.34948 2.1923 -43.463 -0.4932 -1.5443 4.84324 1.6409 0.7333 -45.8593 -2.6451 -17.8797 6.95917 32.5398 -8.367 -8.2066 0.5982 -42.5128 -35.1807 -67.4849 -2.1923 -43.463 -0.4931 -79.9364 43.6278 100.549 -0.7333 -45.8593 -2.6451 22.0129 16.9009 -37.1256 
-60.9881 7.45847 14.1008 89.9982 1.99555 92.0096 1.77636e-015 -1.186 -1.5018 -0.575928 9.89488 -0.158476 0 9.964 0.2134 -1.14984 19.791 -0.219062 1.77636e-015 13.134 -3.2573 -1.14986 19.791 -0.219089 0 20.686 -1.6905 -0.00041173 15.3325 7.74074e-005 0 7.238 -0.1237 -3.09844e-006 10.0093 -1.48423e-007 1.7069 20.075 5.0056 9.25915 9.24232 -42.1213 13.6458 -0.047 -4.849 -36.5209 -0.836692 48.3829 28.3255 -0.9759 2.2888 -7.67525 -42.6304 -82.3735 22.1583 -0.53 10.8316 -1.25935 -2.54338 17.137 0.786 0.112 2.5817 -1.65114e-006 1.79722e-006 -1.12299e-006 0.3601 -0.878 4.2331 -2.37694e-006 2.59818e-006 3.08733e-006 1.8127 -1.216 2.2227 -2.77232e-006 6.43513e-007 -3.96484e-006 0.9571 1.114 1.7695 -7.95139e-015 -3.18055e-015 -0 4.1246 0.487 4.1451 -1.65114e-006 1.79722e-006 -1.12299e-006 3.4052 -1.454 2.7682 -2.37694e-006 2.59818e-006 3.08733e-006 1.4531 -1.795 1.2713 -2.77232e-006 6.43513e-007 -3.96484e-006 5.6954 0.21 2.1184 -1.65114e-006 1.79722e-006 -1.12299e-006 3.9766 -1.54 2.3863 -2.37694e-006 2.59818e-006 3.08733e-006 1.4042 -1.926 1.125 -2.77232e-006 6.43513e-007 -3.96484e-006 2.0956 0.66 -0.3894 -7.95139e-015 -3.18055e-015 -0 5.0395 -0.09 2.4971 -1.65114e-006 1.79722e-006 -1.12299e-006 3.7921 -1.552 1.4806 -2.37694e-006 2.59818e-006 3.08733e-006 1.4655 -1.808 0.9609 -2.77232e-006 6.43513e-007 -3.96484e-006 4.9141 -1.269 0.3591 -1.65114e-006 1.79722e-006 -1.12299e-006 3.1477 -1.685 0.8462 -2.37694e-006 2.59818e-006 3.08733e-006 0.8055 -1.585 0.7955 -2.77232e-006 6.43513e-007 -3.96484e-006 -1.7069 20.075 5.0056 4.49593 19.3042 28.1332 -13.6458 -0.047 -4.849 43.7076 -7.95239 -49.6213 -28.3255 -0.9759 2.2888 0.36503 -7.07238 62.6857 -22.1583 -0.53 10.8316 11.7338 -0.810327 7.73175 -0.786 0.112 2.5817 6.36111e-015 -3.18055e-015 -6.36111e-015 -0.3601 -0.878 4.2331 9.54166e-015 -3.18055e-015 -0 -1.8127 -1.216 2.2227 3.18055e-015 -6.36111e-015 -9.54166e-015 -0.9571 1.114 1.7695 3.18055e-015 -3.18055e-015 -3.18055e-015 -4.1246 0.487 4.1451 -3.18055e-015 9.54166e-015 1.59028e-015 -3.4052 -1.454 2.7682 3.18055e-015 -3.18055e-015 -1.59028e-015 -1.4531 -1.795 1.2713 -3.18055e-015 -3.18055e-015 -4.77083e-015 -5.6954 0.21 2.1184 -3.18055e-015 9.54166e-015 1.59028e-015 -3.9766 -1.54 2.3863 3.18055e-015 -3.18055e-015 -1.59028e-015 -1.4042 -1.926 1.125 -3.18055e-015 -3.18055e-015 -4.77083e-015 -2.0956 0.66 -0.3894 3.18055e-015 -3.18055e-015 -3.18055e-015 -5.0395 -0.09 2.4971 -3.18055e-015 9.54166e-015 1.59028e-015 -3.7921 -1.552 1.4806 3.18055e-015 -3.18055e-015 -1.59028e-015 -1.4655 -1.808 0.9609 -3.18055e-015 -3.18055e-015 -4.77083e-015 -4.9141 -1.269 0.3592 -3.18055e-015 9.54166e-015 1.59028e-015 -3.1477 -1.685 0.8462 3.18055e-015 -3.18055e-015 -1.59028e-015 -0.8055 -1.585 0.7955 -3.18055e-015 -3.18055e-015 -4.77083e-015 8.367 -8.2066 0.5982 0.248964 -2.32614 -1.24024 2.1923 -43.463 -0.4932 -1.42282 2.67157 1.74206 0.7333 -45.8593 -2.6451 -15.8259 7.76425 30.3979 -8.367 -8.2066 0.5982 -37.7957 -35.1367 -63.0713 -2.1923 -43.463 -0.4931 -72.2617 47.8133 94.2135 -0.7333 -45.8593 -2.6451 19.0702 16.5999 -33.5932 
